<?xml version="1.0" encoding="utf-8"?>
<!-- Generator: Adobe Illustrator 16.0.0, SVG Export Plug-In . SVG Version: 6.00 Build 0)  -->
<!DOCTYPE svg PUBLIC "-//W3C//DTD SVG 1.1//EN" "http://www.w3.org/Graphics/SVG/1.1/DTD/svg11.dtd">
<svg version="1.1" id="Layer_1" xmlns="http://www.w3.org/2000/svg" xmlns:xlink="http://www.w3.org/1999/xlink" x="0px" y="0px"
	 width="612px" height="792px" viewBox="0 0 612 792" enable-background="new 0 0 612 792" xml:space="preserve">
<path fill="#FFFFFF" stroke="#007BFF" stroke-miterlimit="10" d="M611.163,642.793c0,32.041-25.969,58.006-58.008,58.006H58.58
	c-32.035,0-58.006-25.965-58.006-58.006V148.22c0-32.035,25.971-58.006,58.006-58.006h494.575c32.039,0,58.008,25.971,58.008,58.006
	V642.793z"/>
<g>
	<path fill="#007BFF" d="M247.131,155.178l-5.454,114.262c-1.027,24.614-2.238,58.134-3.637,100.556h-78.459l-9.51-214.818H247.131z
		"/>
	<path fill="#007BFF" d="M449.643,264.265c0,33.659-10.443,60.138-31.328,79.438c-21.539,20.047-51.887,30.069-91.047,30.069
		c-25.174,0-44.614-1.258-58.319-3.776l-3.776-103.913c-1.212-26.665-3.404-63.447-6.573-110.346
		c20.231-2.889,41.35-4.336,63.354-4.336c39.252,0,69.975,9.139,92.166,27.412C437.801,198.393,449.643,226.878,449.643,264.265z
		 M392.301,281.467c0-13.706-4.43-23.821-13.287-30.349c-7.365-5.406-16.781-7.878-28.25-7.412l-1.957,87.689
		c11.934-0.745,21.678-4.615,29.229-11.608C387.545,311.117,392.301,298.344,392.301,281.467z"/>
	<path fill="#007BFF" d="M320.835,398.639l-4.056,87.969c-3.637-0.559-9.465-1.258-17.482-2.098
		c-4.943-0.279-12.96-0.56-24.055-0.839c-0.559,5.503-1.538,18.789-2.937,39.858c-1.027,20.419-2.705,50.396-5.035,89.928h-67.69
		c-0.748-18.832-2.146-48.436-4.196-88.809c-0.933-13.985-1.912-27.644-2.937-40.978l-22.097,0.839l-20,2.098l-3.496-87.969H320.835
		z"/>
	<path fill="#007BFF" d="M462.229,486.607c-6.901-1.584-12.122-2.377-15.664-2.377c-4.384,0-8.392,1.492-12.027,4.476
		c-4.384,3.636-6.573,8.345-6.573,14.125c0,4.476,4.008,13.101,12.027,25.873c8.018,12.775,12.027,24.523,12.027,35.244
		c0,15.572-5.922,28.345-17.762,38.32c-11.282,9.604-25.222,14.405-41.816,14.405c-15.292,0-26.572-1.073-33.845-3.217
		c-0.84-4.287-2.286-11.28-4.336-20.979c-1.307-5.221-3.125-12.167-5.454-20.838c10.255,2.517,17.154,3.775,20.698,3.775
		c13.892,0,20.839-5.267,20.839-15.804c0-7.644-2.798-14.497-8.392-20.559c-9.139-8.018-18.275-16.083-27.412-24.195
		c-17.716-15.663-26.572-34.265-26.572-55.802c0-22.469,8.392-39.485,25.174-51.048c14.637-10.069,34.125-15.104,58.46-15.104
		c13.798,0,29.275,2.006,46.432,6.014L462.229,486.607z"/>
</g>
<g>
</g>
<g>
</g>
<g>
</g>
<g>
</g>
<g>
</g>
<g>
</g>
</svg>
